# xmcd CD database file
#
# Track frame offsets:
#	150
#	20479
#	62051
#	90699
#	115422
#	138101
#	155048
#	183660
#
# Disc length: 2859 seconds
#
# Revision: 0
# Processed by: cddbd v1.5PL3 Copyright (c) Steve Scherf et al.
# Submitted via: CDex 1.51
#
DISCID=6b0b2908
DTITLE=The Fritz Pauer Trio - Blues Inside Out
DYEAR=1979
DGENRE=Jazz
TTITLE0=The Beacon
TTITLE1=English Garden Walk
TTITLE2=Flute Song
TTITLE3=My Little Girl
TTITLE4=Blues Inside Out
TTITLE5=Terra Samba
TTITLE6=Prelude To A Kiss
TTITLE7=The Man From Potters Crossing
EXTD=YEAR: 1979
EXTT0=
EXTT1=
EXTT2=
EXTT3=
EXTT4=
EXTT5=
EXTT6=
EXTT7=
PLAYORDER=
